# xmcd
#
# Track frame offsets: 
#        150
#        6985
#        14462
#        24515
#        29977
#        38015
#        47645
#        53460
#        62917
#        71212
#        81397
#        92505
#        102075
#        114192
#
# Disc length: 3009 seconds
#
# Revision: 6
# Processed by: cddbd v1.5.2PL0 Copyright (c) Steve Scherf et al.
# Submitted via: ExactAudioCopy v0.99pb1
#
DISCID=b20bbf0e
DTITLE=AFI - Answer That And Stay Fashionable (Wingnut)
DYEAR=1995
DGENRE=Punk
TTITLE0=Two Of A Kind
TTITLE1=Half- Empty Bottle
TTITLE2=Yürf Rendenmein
TTITLE3=I Wanna Get A Mohawk (But Mom Won't Let Me Get One)
TTITLE4=Brownie-Bottom Sundae
TTITLE5=The Checkered Demon
TTITLE6=Cereal Wars
TTITLE7=The Mother In Me
TTITLE8=Rizzo In The Box
TTITLE9=Kung-Fu Devil
TTITLE10=Your Name Here
TTITLE11=Ny-Quil
TTITLE12=Don't Make Me Ill
TTITLE13=High School Football Hero/Man In A Suitcase
EXTD=this album is not blues it's punk
EXTT0=
EXTT1=
EXTT2=
EXTT3=
EXTT4=
EXTT5=
EXTT6=
EXTT7=
EXTT8=
EXTT9=
EXTT10=
EXTT11=
EXTT12=
EXTT13=
PLAYORDER=
